<svg width="412" height="328" viewBox="0 0 412 328" fill="none" xmlns="http://www.w3.org/2000/svg">
<path d="M14 56.8571C14 45.4907 18.4952 34.5898 26.4968 26.5526C34.4983 18.5153 45.3508 14 56.6667 14H355.333C366.649 14 377.502 18.5153 385.503 26.5526C393.505 34.5898 398 45.4907 398 56.8571M14 56.8571V271.143C14 282.509 18.4952 293.41 26.4968 301.447C34.4983 309.485 45.3508 314 56.6667 314H355.333C366.649 314 377.502 309.485 385.503 301.447C393.505 293.41 398 282.509 398 271.143V56.8571M14 56.8571L206 185.429L398 56.8571" stroke="#F4F4F4" stroke-width="28" stroke-linecap="round" stroke-linejoin="round"/>
</svg>
