<svg width="592" height="126" fill="none" xmlns="http://www.w3.org/2000/svg"><path d="M203.961 86.248c-.818 10.493-9.98 18.353-20.441 17.534-10.46-.82-18.296-10.012-17.479-20.506.818-10.493 9.981-18.353 20.441-17.534 10.46.82 18.296 10.012 17.479 20.506z" fill="#FF0041"/><path d="M192.765 90.685a24.49 24.49 0 0 1-11.718 11.333 24.376 24.376 0 0 1-16.214 1.443 24.45 24.45 0 0 1-13.524-9.087 24.58 24.58 0 0 1-4.84-15.59 24.567 24.567 0 0 1 5.988-15.184 24.433 24.433 0 0 1 14.162-8.048 24.384 24.384 0 0 1 16.061 2.653 24.503 24.503 0 0 1 10.841 12.18l-9.524 3.923a14.187 14.187 0 0 0-6.276-7.052 14.118 14.118 0 0 0-9.298-1.536 14.14 14.14 0 0 0-8.199 4.66 14.231 14.231 0 0 0-.665 17.816 14.158 14.158 0 0 0 7.83 5.26c3.132.806 6.444.51 9.386-.835a14.176 14.176 0 0 0 6.784-6.561l9.206 4.625zM195.353 55.172v10.902h16.301v38.155h10.867V66.074h16.3V55.172h-43.468z" fill="#014CFF"/><path fill-rule="evenodd" clip-rule="evenodd" d="M275.981 102.472a24.482 24.482 0 0 0 12.776-11.787l-9.206-4.625a14.172 14.172 0 0 1-7.396 6.824 14.113 14.113 0 0 1-10.047.18 14.165 14.165 0 0 1-8.625-8.821h37.862v-5.45a3.71 3.71 0 0 0-.044-.572 24.57 24.57 0 0 0-6.33-15.038 24.391 24.391 0 0 0-32.272-3.454 24.53 24.53 0 0 0-9.635 14.484 24.595 24.595 0 0 0 2.374 17.25 24.475 24.475 0 0 0 13.188 11.321 24.376 24.376 0 0 0 17.355-.312zm-22.498-27.314h26.823a14.202 14.202 0 0 0-2.947-5.02 14.121 14.121 0 0 0-18.683-2 14.197 14.197 0 0 0-5.193 7.02z" fill="#014CFF"/><path d="M294.968 55.172v10.902h16.3v38.155h10.867V66.074h16.301V55.172h-43.468zM390.96 79.7c0 13.547-10.947 24.529-24.451 24.529-13.504 0-24.451-10.982-24.451-24.528 0-13.547 10.947-24.529 24.451-24.529 13.504 0 24.451 10.982 24.451 24.529zm-38.606 0c0 7.843 6.337 14.201 14.155 14.201s14.156-6.358 14.156-14.2c0-7.843-6.338-14.2-14.156-14.2-7.818 0-14.155 6.357-14.155 14.2zM440.895 90.685a24.481 24.481 0 0 1-11.718 11.333 24.373 24.373 0 0 1-16.213 1.443 24.44 24.44 0 0 1-13.524-9.087 24.587 24.587 0 0 1 1.147-30.774 24.432 24.432 0 0 1 14.163-8.048 24.386 24.386 0 0 1 16.061 2.653 24.503 24.503 0 0 1 10.841 12.18l-9.524 3.923a14.186 14.186 0 0 0-6.276-7.052 14.119 14.119 0 0 0-9.299-1.536 14.147 14.147 0 0 0-8.199 4.66 14.231 14.231 0 0 0-.664 17.816 14.152 14.152 0 0 0 7.829 5.26c3.132.806 6.445.51 9.387-.835a14.176 14.176 0 0 0 6.784-6.561l9.205 4.625zM457.945 55.172h-10.839v49.057h10.839v-18.18c2.496-1.38 5.443-1.773 8.232-1.291 2.959.511 5.677 2.093 7.702 4.483 2.026 2.39 2.255 3.125 3.173 6.197.135.451.884 5.999.881 8.691l8.945-.012.008-.309c.083-3.36.105-4.252-.034-6.498-.344-5.552-2.44-10.83-5.939-14.957a23.437 23.437 0 0 0-4.927-4.391c3.488-3.083 5.99-7.231 7.162-11.925.753-3.876.782-4.533.672-10.865h-9.313c.063 3.618-.096 4.84-.867 7.927-.772 3.087-2.536 5.767-5.003 7.597a12.699 12.699 0 0 1-8.561 2.465 13.145 13.145 0 0 1-2.131-.34V55.172zM539.476 79.7c0 13.547-10.947 24.529-24.451 24.529-13.504 0-24.451-10.982-24.451-24.528 0-13.547 10.947-24.529 24.451-24.529 13.504 0 24.451 10.982 24.451 24.529zm-38.606 0c0 7.843 6.337 14.201 14.155 14.201s14.156-6.358 14.156-14.2c0-7.843-6.338-14.2-14.156-14.2-7.818 0-14.155 6.357-14.155 14.2zM543.098 55.172H592v49.057h-10.289V66.074h-28.323v38.155h-10.29V55.172zM57.151 11.135a6.45 6.45 0 0 1-2.62 2.145l-6.3 2.813c-3.288 1.47-7.118-.067-8.555-3.345l-.102-.234c-1.457-3.324.014-7.173 3.302-8.642l6.3-2.813a6.422 6.422 0 0 1 6.122.483c8.317-1.532 15.37-.093 20.96 4.269 10.929 8.553 11.623 25.24 11.675 26.472l.002.051a4.9 4.9 0 0 1-2.907 4.608l-2.128.95c9.692 46.848 2.282 62.826-3.591 68.271 5.755 11.102 16.453 13.146 23.665 9.176 7.007-3.857 12.907-14.881 4.766-34.212-5.193-12.333-7.665-22.469-7.429-30.02.119-3.799.932-7.26 2.742-10.017 1.885-2.872 4.667-4.688 8.025-5.335 6.27-1.209 13.989 1.724 22.126 7.092 8.369 5.522 18.068 14.212 28.626 26.115l-6.229 5.48c-10.263-11.57-19.421-19.703-26.988-24.695-7.799-5.146-13.092-6.419-15.956-5.867-1.209.233-2.025.79-2.647 1.738-.698 1.063-1.302 2.871-1.392 5.747-.182 5.8 1.766 14.639 6.787 26.561 9.123 21.665 3.631 38.028-8.411 44.656-11.699 6.44-27.453 2.235-35.146-12.77-7.68 1.106-24.587-3.211-53.197-43.112l-1.584.708a4.815 4.815 0 0 1-5.333-.927c-.55-.514-12.787-12.627-11.66-26.857.501-7.16 4.214-13.418 10.939-18.596a6.494 6.494 0 0 1 3.407-3.563l6.253-2.793c3.289-1.47 7.119.067 8.555 3.345l.103.234.046-.02c1.457 3.324-.06 7.193-3.302 8.641l-6.3 2.814a6.38 6.38 0 0 1-4.357.315c-3.538 3.12-5.411 6.524-5.728 10.32-.532 6.693 3.878 13.296 6.674 16.713l1.992-.89a4.793 4.793 0 0 1 5.917 1.643c30.59 43.738 44.949 42.532 46.738 42.167.698-.157.698-.157 1.219-.543l.003-.003c1.471-1.09 11.837-11.038.392-63.22a4.878 4.878 0 0 1 2.776-5.525l2.49-1.112c-.63-4.277-2.463-11.921-7.662-16.002-3.343-2.584-7.631-3.391-13.078-2.414z" fill="#014CFF"/></svg>