<svg width="284" height="84" viewBox="0 0 284 84" fill="none" xmlns="http://www.w3.org/2000/svg">
<path d="M97.8459 41.1589C97.4539 46.1958 93.0582 49.9687 88.04 49.5752C83.0218 49.1818 79.263 44.7696 79.655 39.7327C80.047 34.6958 84.4428 30.9229 89.4609 31.3164C94.4791 31.7098 98.2379 36.122 97.8459 41.1589Z" fill="#FF0041"/>
<path d="M92.475 43.2887C91.2752 45.6933 89.2914 47.6131 86.8535 48.7288C84.4157 49.8445 81.6708 50.0889 79.0754 49.4213C76.48 48.7538 74.1905 47.2145 72.5877 45.0595C70.9849 42.9045 70.1654 40.2637 70.2655 37.5762C70.3657 34.8888 71.3794 32.3168 73.1381 30.288C74.8968 28.2592 77.2944 26.8959 79.9323 26.4248C82.5701 25.9536 85.2892 26.4032 87.6371 27.6985C89.9851 28.9939 91.8205 31.0571 92.8381 33.5449L88.2691 35.4276C87.68 33.9874 86.6174 32.7929 85.2581 32.043C83.8988 31.293 82.3246 31.0328 80.7975 31.3055C79.2704 31.5783 77.8823 32.3676 76.8641 33.5421C75.8459 34.7167 75.2591 36.2057 75.2011 37.7615C75.1431 39.3174 75.6175 40.8462 76.5455 42.0938C77.4734 43.3414 78.7989 44.2326 80.3014 44.6191C81.804 45.0055 83.3931 44.864 84.8045 44.2181C86.2158 43.5722 87.3643 42.4607 88.0589 41.0687L92.475 43.2887Z" fill="white"/>
<path d="M93.7169 26.2427V31.4754H101.537V49.7899H106.75V31.4754H114.57V26.2427H93.7169Z" fill="white"/>
<path fill-rule="evenodd" clip-rule="evenodd" d="M132.396 48.9467C135.06 47.8765 137.24 45.8636 138.525 43.2887L134.109 41.0687C133.365 42.5594 132.103 43.7247 130.561 44.3443C129.019 44.9638 127.304 44.9946 125.741 44.4308C124.178 43.867 122.875 42.7477 122.078 41.2847C121.888 40.9344 121.729 40.5702 121.603 40.1966H139.767V37.5802C139.767 37.4869 139.76 37.3953 139.746 37.306C139.585 34.6282 138.516 32.0794 136.709 30.0879C134.777 27.959 132.135 26.6146 129.282 26.3091C126.429 26.0037 123.563 26.7583 121.227 28.4303C118.891 30.1022 117.247 32.5756 116.605 35.3824C115.963 38.1892 116.368 41.1347 117.744 43.6619C119.12 46.189 121.371 48.1223 124.071 49.0962C126.771 50.0701 129.733 50.0169 132.396 48.9467ZM121.603 35.836H134.471C134.174 34.9504 133.695 34.1285 133.058 33.4263C131.939 32.1938 130.409 31.4155 128.758 31.2386C127.106 31.0618 125.447 31.4986 124.095 32.4666C122.927 33.3021 122.058 34.4833 121.603 35.836Z" fill="white"/>
<path d="M141.505 26.2427V31.4754H149.325V49.7899H154.538V31.4754H162.358V26.2427H141.505Z" fill="white"/>
<path d="M187.555 38.0163C187.555 44.5186 182.304 49.7899 175.825 49.7899C169.347 49.7899 164.096 44.5186 164.096 38.0163C164.096 31.5139 169.347 26.2427 175.825 26.2427C182.304 26.2427 187.555 31.5139 187.555 38.0163ZM169.035 38.0163C169.035 41.7807 172.075 44.8324 175.825 44.8324C179.576 44.8324 182.616 41.7807 182.616 38.0163C182.616 34.2518 179.576 31.2002 175.825 31.2002C172.075 31.2002 169.035 34.2518 169.035 38.0163Z" fill="white"/>
<path d="M211.511 43.2887C210.311 45.6933 208.327 47.6131 205.889 48.7288C203.451 49.8445 200.706 50.0889 198.111 49.4213C195.516 48.7538 193.226 47.2145 191.623 45.0595C190.021 42.9045 189.201 40.2637 189.301 37.5763C189.401 34.8889 190.415 32.3168 192.174 30.288C193.932 28.2592 196.33 26.8959 198.968 26.4248C201.606 25.9537 204.325 26.4032 206.673 27.6986C209.021 28.9939 210.856 31.0571 211.874 33.5449L207.305 35.4276C206.716 33.9874 205.653 32.7929 204.294 32.043C202.934 31.2931 201.36 31.0328 199.833 31.3056C198.306 31.5783 196.918 32.3676 195.9 33.5421C194.882 34.7167 194.295 36.2057 194.237 37.7615C194.179 39.3174 194.653 40.8462 195.581 42.0938C196.509 43.3414 197.834 44.2326 199.337 44.6191C200.84 45.0055 202.429 44.864 203.84 44.2181C205.251 43.5722 206.4 42.4608 207.095 41.0687L211.511 43.2887Z" fill="white"/>
<path d="M219.69 26.2427H214.49V49.7899H219.69V41.0637C220.888 40.4015 222.301 40.2124 223.639 40.4438C225.059 40.6893 226.362 41.4485 227.334 42.5956C228.306 43.7427 228.416 44.0957 228.856 45.5703C228.921 45.7866 229.28 48.4499 229.279 49.7418L233.57 49.736L233.574 49.5878C233.614 47.9752 233.624 47.5466 233.557 46.4687C233.392 43.8036 232.387 41.2707 230.708 39.2893C230.011 38.4657 229.214 37.7579 228.345 37.1814C230.018 35.702 231.218 33.7106 231.78 31.458C232.142 29.5972 232.156 29.2819 232.103 26.2427L227.635 26.2427C227.665 27.9794 227.589 28.5655 227.219 30.0473C226.849 31.5291 226.003 32.8156 224.819 33.694C223.636 34.5723 222.187 34.9898 220.712 34.8774C220.367 34.8511 220.025 34.7961 219.69 34.7139V26.2427Z" fill="white"/>
<path d="M258.803 38.0163C258.803 44.5186 253.551 49.7899 247.073 49.7899C240.595 49.7899 235.343 44.5186 235.343 38.0163C235.343 31.5139 240.595 26.2427 247.073 26.2427C253.551 26.2427 258.803 31.5139 258.803 38.0163ZM240.282 38.0163C240.282 41.7807 243.323 44.8324 247.073 44.8324C250.823 44.8324 253.864 41.7807 253.864 38.0163C253.864 34.2518 250.823 31.2002 247.073 31.2002C243.323 31.2002 240.282 34.2518 240.282 38.0163Z" fill="white"/>
<path d="M260.541 26.2427H284V49.7899H279.064V31.4754H265.477V49.7899H260.541V26.2427Z" fill="white"/>
<path d="M27.4171 5.105C27.1047 5.54195 26.6784 5.90257 26.1601 6.13419L23.1381 7.48483C21.5605 8.18995 19.7229 7.45245 19.0339 5.87917L18.9847 5.7668C18.2858 4.17104 18.9913 2.32386 20.5689 1.61875L23.5909 0.268103C24.5842 -0.175814 25.6804 -0.0479455 26.5282 0.500285C30.5179 -0.235021 33.9019 0.455401 36.583 2.54929C41.8261 6.65463 42.1593 14.6643 42.1839 15.2561L42.1849 15.2804C42.2121 16.2319 41.6591 17.104 40.7904 17.4923L39.7696 17.9485C44.4192 40.435 40.8645 48.1044 38.0469 50.7182C40.8079 56.0471 45.9399 57.0282 49.3995 55.1227C52.7609 53.2713 55.5916 47.98 51.6863 38.7009C49.1947 32.7809 48.0088 27.9161 48.1221 24.2916C48.1791 22.4679 48.5695 20.8065 49.4376 19.4831C50.3418 18.1046 51.6763 17.2329 53.2872 16.9222C56.2953 16.3421 59.9986 17.7499 63.9018 20.3267C67.9168 22.9773 72.5696 27.1486 77.6347 32.8619L74.6466 35.492C69.7229 29.9381 65.3294 26.0346 61.6997 23.6384C57.9583 21.1685 55.4187 20.5576 54.0448 20.8225C53.4648 20.9344 53.0737 21.2012 52.775 21.6565C52.4401 22.167 52.1503 23.0349 52.1072 24.4152C52.0202 27.199 52.9545 31.4418 55.3631 37.1646C59.7399 47.5639 57.105 55.4178 51.3284 58.5995C45.7159 61.6907 38.1583 59.6721 34.4676 52.4696C30.7832 53.0008 22.6725 50.9284 8.9476 31.7761L8.18743 32.1158C7.31868 32.5041 6.30784 32.3309 5.62913 31.6706C5.36527 31.424 -0.505335 25.61 0.0351296 18.7797C0.275939 15.343 2.05686 12.3388 5.28328 9.85355C5.57313 9.11698 6.13921 8.49105 6.91761 8.14315L9.9174 6.80244C11.495 6.09733 13.3326 6.83482 14.0216 8.4081L14.0709 8.52048L14.0931 8.51055C14.792 10.1063 14.0643 11.9634 12.5088 12.6586L9.48682 14.0092C8.80053 14.316 8.06505 14.3497 7.39633 14.1604C5.69938 15.6585 4.80052 17.292 4.64838 19.1138C4.39348 22.3267 6.50876 25.4961 7.85034 27.1361L8.80598 26.709C9.82676 26.2528 11.0103 26.5832 11.6446 27.4977C26.3191 48.492 33.2078 47.9133 34.066 47.7381C34.4009 47.6627 34.4009 47.6627 34.6508 47.4772L34.6524 47.476C35.358 46.9523 40.3307 42.1777 34.8405 17.1306C34.5972 16.0414 35.1512 14.9344 36.172 14.4782L37.3665 13.9443C37.0648 11.8916 36.1849 8.22219 33.691 6.26378C32.0874 5.02321 30.03 4.63563 27.4171 5.105Z" fill="white"/>
<path d="M1.036 71.692H3.094L5.026 74.912H5.082L6.986 71.692H8.988V79H7.252V73.904H7.196L6.692 74.856L5.012 77.628L3.332 74.856L2.828 73.904H2.772V79H1.036V71.692ZM14.4115 79.168C13.8702 79.168 13.3848 79.0793 12.9555 78.902C12.5355 78.7153 12.1762 78.4587 11.8775 78.132C11.5882 77.796 11.3642 77.3947 11.2055 76.928C11.0468 76.452 10.9675 75.92 10.9675 75.332C10.9675 74.7533 11.0422 74.2307 11.1915 73.764C11.3502 73.2973 11.5742 72.9007 11.8635 72.574C12.1528 72.238 12.5075 71.9813 12.9275 71.804C13.3475 71.6173 13.8235 71.524 14.3555 71.524C14.9248 71.524 15.4195 71.622 15.8395 71.818C16.2595 72.014 16.6048 72.28 16.8755 72.616C17.1462 72.952 17.3468 73.344 17.4775 73.792C17.6175 74.2307 17.6875 74.702 17.6875 75.206V75.794H12.8295V75.976C12.8295 76.508 12.9788 76.9373 13.2775 77.264C13.5762 77.5813 14.0195 77.74 14.6075 77.74C15.0555 77.74 15.4195 77.6467 15.6995 77.46C15.9888 77.2733 16.2455 77.0353 16.4695 76.746L17.4355 77.824C17.1368 78.244 16.7262 78.5753 16.2035 78.818C15.6902 79.0513 15.0928 79.168 14.4115 79.168ZM14.3835 72.868C13.9075 72.868 13.5295 73.0267 13.2495 73.344C12.9695 73.6613 12.8295 74.072 12.8295 74.576V74.688H15.8255V74.562C15.8255 74.058 15.6995 73.652 15.4475 73.344C15.2048 73.0267 14.8502 72.868 14.3835 72.868ZM18.7541 77.572H19.6781C19.9488 77.18 20.1495 76.6853 20.2801 76.088C20.4108 75.4907 20.4761 74.7207 20.4761 73.778V71.692H26.0901V77.572H27.3361V80.96H25.7121V79H20.3781V80.96H18.7541V77.572ZM24.2981 77.572V73.12H22.1841V73.862C22.1841 74.8607 22.1235 75.654 22.0021 76.242C21.8808 76.8207 21.7315 77.264 21.5541 77.572H24.2981ZM29.0192 71.692H30.7692V74.954L30.6152 76.662H30.6712L31.5252 75.108L33.8072 71.692H35.4172V79H33.6672V75.738L33.8212 74.016H33.7652L32.9112 75.584L30.6292 79H29.0192V71.692ZM43.7058 79H37.8958V71.692H39.6878V77.572H42.2918V71.692H44.0838V77.572H45.3298V80.96H43.7058V79ZM47.0184 71.692H48.7684V74.954L48.6144 76.662H48.6704L49.5244 75.108L51.8064 71.692H53.4164V79H51.6664V75.738L51.8204 74.016H51.7644L50.9104 75.584L48.6284 79H47.0184V71.692ZM55.895 71.692H57.687V74.562H60.501V71.692H62.293V79H60.501V75.99H57.687V79H55.895V71.692ZM67.6555 79.168C67.1142 79.168 66.6335 79.0793 66.2135 78.902C65.7935 78.7247 65.4389 78.468 65.1495 78.132C64.8695 77.796 64.6549 77.3947 64.5055 76.928C64.3562 76.452 64.2815 75.92 64.2815 75.332C64.2815 74.744 64.3562 74.2167 64.5055 73.75C64.6549 73.2833 64.8695 72.8867 65.1495 72.56C65.4389 72.224 65.7935 71.9673 66.2135 71.79C66.6335 71.6127 67.1142 71.524 67.6555 71.524C68.3929 71.524 68.9995 71.6873 69.4755 72.014C69.9609 72.3407 70.3109 72.7933 70.5255 73.372L69.0555 74.03C68.9715 73.722 68.8129 73.47 68.5795 73.274C68.3555 73.0687 68.0475 72.966 67.6555 72.966C67.1515 72.966 66.7735 73.1247 66.5215 73.442C66.2789 73.7593 66.1575 74.1747 66.1575 74.688V76.018C66.1575 76.5313 66.2789 76.9467 66.5215 77.264C66.7735 77.572 67.1515 77.726 67.6555 77.726C68.0849 77.726 68.4162 77.6187 68.6495 77.404C68.8829 77.18 69.0649 76.9047 69.1955 76.578L70.5675 77.236C70.3249 77.88 69.9562 78.3653 69.4615 78.692C68.9669 79.0093 68.3649 79.168 67.6555 79.168ZM72.3493 71.692H74.1413V74.562H75.3173L76.4233 72.644C76.6286 72.2893 76.8386 72.042 77.0533 71.902C77.2679 71.762 77.5526 71.692 77.9073 71.692H78.7053V73.12H77.9213L77.1513 74.464C77.0206 74.7067 76.8946 74.8793 76.7733 74.982C76.6519 75.0753 76.5073 75.1453 76.3393 75.192V75.262C76.5073 75.2993 76.6566 75.3647 76.7873 75.458C76.9273 75.5513 77.0626 75.7147 77.1933 75.948L78.1033 77.572H78.8733V79H77.9633C77.6086 79 77.3146 78.9253 77.0813 78.776C76.8573 78.6267 76.6426 78.37 76.4373 78.006L75.3173 75.976H74.1413V79H72.3493V71.692ZM80.8567 71.692H82.6067V74.954L82.4527 76.662H82.5087L83.3627 75.108L85.6447 71.692H87.2547V79H85.5047V75.738L85.6587 74.016H85.6027L84.7487 75.584L82.4667 79H80.8567V71.692ZM89.7333 71.692H91.4833V74.954L91.3293 76.662H91.3853L92.2393 75.108L94.5213 71.692H96.1313V79H94.3813V75.738L94.5353 74.016H94.4793L93.6253 75.584L91.3433 79H89.7333V71.692ZM92.9393 70.824C92.3513 70.824 91.8799 70.7027 91.5253 70.46C91.1706 70.208 90.8906 69.8533 90.6853 69.396L90.3913 68.738L91.8193 68.178L92.2813 69.522C92.3559 69.55 92.4539 69.5733 92.5753 69.592C92.6966 69.6013 92.8179 69.606 92.9393 69.606C93.0606 69.606 93.1819 69.6013 93.3033 69.592C93.4246 69.5733 93.5226 69.55 93.5973 69.522L94.0593 68.178L95.4873 68.738L95.1933 69.396C94.9879 69.8533 94.7079 70.208 94.3533 70.46C93.9986 70.7027 93.5273 70.824 92.9393 70.824ZM102.318 71.692H104.068V74.954L103.914 76.662H103.97L104.824 75.108L107.106 71.692H108.716V79H106.966V75.738L107.12 74.016H107.064L106.21 75.584L103.928 79H102.318V71.692ZM111.195 71.692H112.987V74.562H115.801V71.692H117.593V79H115.801V75.99H112.987V79H111.195V71.692ZM123.656 78.23H123.6C123.245 78.8553 122.713 79.168 122.004 79.168C121.192 79.168 120.594 78.8693 120.212 78.272C119.829 77.6653 119.638 76.69 119.638 75.346C119.638 74.002 119.829 73.0313 120.212 72.434C120.594 71.8273 121.192 71.524 122.004 71.524C122.368 71.524 122.68 71.608 122.942 71.776C123.203 71.9347 123.422 72.168 123.6 72.476H123.656V69.06H125.448V72.476H125.504C125.681 72.168 125.9 71.9347 126.162 71.776C126.423 71.608 126.736 71.524 127.1 71.524C127.912 71.524 128.509 71.8273 128.892 72.434C129.274 73.0313 129.466 74.002 129.466 75.346C129.466 76.69 129.274 77.6653 128.892 78.272C128.509 78.8693 127.912 79.168 127.1 79.168C126.39 79.168 125.858 78.8553 125.504 78.23H125.448V81.8H123.656V78.23ZM122.676 77.824C123.03 77.824 123.282 77.7493 123.432 77.6C123.581 77.4507 123.656 77.2407 123.656 76.97V73.722C123.656 73.4513 123.581 73.2413 123.432 73.092C123.282 72.9333 123.03 72.854 122.676 72.854C122.256 72.854 121.952 72.9987 121.766 73.288C121.588 73.568 121.5 74.0253 121.5 74.66V76.032C121.5 76.6667 121.588 77.124 121.766 77.404C121.952 77.684 122.256 77.824 122.676 77.824ZM126.428 77.824C126.848 77.824 127.146 77.684 127.324 77.404C127.51 77.124 127.604 76.6667 127.604 76.032V74.66C127.604 74.0253 127.51 73.568 127.324 73.288C127.146 72.9987 126.848 72.854 126.428 72.854C126.073 72.854 125.821 72.9333 125.672 73.092C125.522 73.2413 125.448 73.4513 125.448 73.722V76.97C125.448 77.2407 125.522 77.4507 125.672 77.6C125.821 77.7493 126.073 77.824 126.428 77.824ZM134.457 79.168C133.935 79.168 133.463 79.0793 133.043 78.902C132.633 78.7247 132.278 78.468 131.979 78.132C131.69 77.796 131.466 77.3947 131.307 76.928C131.149 76.452 131.069 75.92 131.069 75.332C131.069 74.744 131.149 74.2167 131.307 73.75C131.466 73.2833 131.69 72.8867 131.979 72.56C132.278 72.224 132.633 71.9673 133.043 71.79C133.463 71.6127 133.935 71.524 134.457 71.524C134.98 71.524 135.451 71.6127 135.871 71.79C136.291 71.9673 136.646 72.224 136.935 72.56C137.234 72.8867 137.463 73.2833 137.621 73.75C137.78 74.2167 137.859 74.744 137.859 75.332C137.859 75.92 137.78 76.452 137.621 76.928C137.463 77.3947 137.234 77.796 136.935 78.132C136.646 78.468 136.291 78.7247 135.871 78.902C135.451 79.0793 134.98 79.168 134.457 79.168ZM134.457 77.726C134.933 77.726 135.307 77.5813 135.577 77.292C135.848 77.0027 135.983 76.578 135.983 76.018V74.66C135.983 74.1093 135.848 73.6893 135.577 73.4C135.307 73.1107 134.933 72.966 134.457 72.966C133.991 72.966 133.622 73.1107 133.351 73.4C133.081 73.6893 132.945 74.1093 132.945 74.66V76.018C132.945 76.578 133.081 77.0027 133.351 77.292C133.622 77.5813 133.991 77.726 134.457 77.726ZM139.848 71.692H141.64V72.896H141.696C141.827 72.476 142.074 72.1447 142.438 71.902C142.802 71.65 143.227 71.524 143.712 71.524C144.645 71.524 145.355 71.8553 145.84 72.518C146.335 73.1713 146.582 74.1093 146.582 75.332C146.582 76.564 146.335 77.5113 145.84 78.174C145.355 78.8367 144.645 79.168 143.712 79.168C143.227 79.168 142.802 79.042 142.438 78.79C142.083 78.538 141.836 78.202 141.696 77.782H141.64V81.8H139.848V71.692ZM143.138 77.684C143.605 77.684 143.983 77.53 144.272 77.222C144.561 76.914 144.706 76.4987 144.706 75.976V74.716C144.706 74.1933 144.561 73.778 144.272 73.47C143.983 73.1527 143.605 72.994 143.138 72.994C142.709 72.994 142.349 73.1013 142.06 73.316C141.78 73.5307 141.64 73.8153 141.64 74.17V76.494C141.64 76.8767 141.78 77.1707 142.06 77.376C142.349 77.5813 142.709 77.684 143.138 77.684ZM148.643 71.692H150.701L152.633 74.912H152.689L154.593 71.692H156.595V79H154.859V73.904H154.803L154.299 74.856L152.619 77.628L150.939 74.856L150.435 73.904H150.379V79H148.643V71.692ZM164.44 79C164.048 79 163.735 78.888 163.502 78.664C163.278 78.4307 163.138 78.1227 163.082 77.74H162.998C162.877 78.216 162.629 78.5753 162.256 78.818C161.883 79.0513 161.421 79.168 160.87 79.168C160.123 79.168 159.549 78.972 159.148 78.58C158.747 78.188 158.546 77.6653 158.546 77.012C158.546 76.256 158.817 75.696 159.358 75.332C159.899 74.9587 160.669 74.772 161.668 74.772H162.914V74.24C162.914 73.8293 162.807 73.512 162.592 73.288C162.377 73.064 162.032 72.952 161.556 72.952C161.136 72.952 160.795 73.0453 160.534 73.232C160.282 73.4093 160.067 73.624 159.89 73.876L158.826 72.924C159.097 72.504 159.456 72.168 159.904 71.916C160.352 71.6547 160.945 71.524 161.682 71.524C162.671 71.524 163.423 71.748 163.936 72.196C164.449 72.644 164.706 73.288 164.706 74.128V77.572H165.434V79H164.44ZM161.472 77.866C161.873 77.866 162.214 77.7773 162.494 77.6C162.774 77.4227 162.914 77.1613 162.914 76.816V75.85H161.766C160.833 75.85 160.366 76.1487 160.366 76.746V76.984C160.366 77.2827 160.459 77.5067 160.646 77.656C160.842 77.796 161.117 77.866 161.472 77.866ZM173.094 79H167.284V71.692H169.076V77.572H171.68V71.692H173.472V77.572H174.718V80.96H173.094V79ZM176.407 71.692H178.157V74.954L178.003 76.662H178.059L178.913 75.108L181.195 71.692H182.805V79H181.055V75.738L181.209 74.016H181.153L180.299 75.584L178.017 79H176.407V71.692ZM188.182 79.168C187.659 79.168 187.188 79.0793 186.768 78.902C186.357 78.7247 186.002 78.468 185.704 78.132C185.414 77.796 185.19 77.3947 185.032 76.928C184.873 76.452 184.794 75.92 184.794 75.332C184.794 74.744 184.873 74.2167 185.032 73.75C185.19 73.2833 185.414 72.8867 185.704 72.56C186.002 72.224 186.357 71.9673 186.768 71.79C187.188 71.6127 187.659 71.524 188.182 71.524C188.704 71.524 189.176 71.6127 189.596 71.79C190.016 71.9673 190.37 72.224 190.66 72.56C190.958 72.8867 191.187 73.2833 191.346 73.75C191.504 74.2167 191.584 74.744 191.584 75.332C191.584 75.92 191.504 76.452 191.346 76.928C191.187 77.3947 190.958 77.796 190.66 78.132C190.37 78.468 190.016 78.7247 189.596 78.902C189.176 79.0793 188.704 79.168 188.182 79.168ZM188.182 77.726C188.658 77.726 189.031 77.5813 189.302 77.292C189.572 77.0027 189.708 76.578 189.708 76.018V74.66C189.708 74.1093 189.572 73.6893 189.302 73.4C189.031 73.1107 188.658 72.966 188.182 72.966C187.715 72.966 187.346 73.1107 187.076 73.4C186.805 73.6893 186.67 74.1093 186.67 74.66V76.018C186.67 76.578 186.805 77.0027 187.076 77.292C187.346 77.5813 187.715 77.726 188.182 77.726ZM193.572 71.692H195.364V74.562H198.178V71.692H199.97V79H198.178V75.99H195.364V79H193.572V71.692ZM202.449 71.692H204.241V74.562H207.055V71.692H208.847V79H207.055V75.99H204.241V79H202.449V71.692ZM211.325 71.692H213.117V74.002H214.937C215.292 74.002 215.619 74.058 215.917 74.17C216.225 74.282 216.487 74.4453 216.701 74.66C216.925 74.8653 217.098 75.122 217.219 75.43C217.35 75.738 217.415 76.0927 217.415 76.494C217.415 76.8953 217.355 77.2547 217.233 77.572C217.112 77.88 216.939 78.1413 216.715 78.356C216.501 78.5613 216.239 78.72 215.931 78.832C215.633 78.944 215.301 79 214.937 79H211.325V71.692ZM214.573 77.67C214.891 77.67 215.138 77.5953 215.315 77.446C215.502 77.2967 215.595 77.0727 215.595 76.774V76.228C215.595 75.9293 215.502 75.7053 215.315 75.556C215.138 75.4067 214.891 75.332 214.573 75.332H213.117V77.67H214.573ZM218.437 71.692H220.229V79H218.437V71.692ZM222.704 71.692H224.454V74.954L224.3 76.662H224.356L225.21 75.108L227.492 71.692H229.102V79H227.352V75.738L227.506 74.016H227.45L226.596 75.584L224.314 79H222.704V71.692ZM225.91 70.824C225.322 70.824 224.851 70.7027 224.496 70.46C224.141 70.208 223.861 69.8533 223.656 69.396L223.362 68.738L224.79 68.178L225.252 69.522C225.327 69.55 225.425 69.5733 225.546 69.592C225.667 69.6013 225.789 69.606 225.91 69.606C226.031 69.606 226.153 69.6013 226.274 69.592C226.395 69.5733 226.493 69.55 226.568 69.522L227.03 68.178L228.458 68.738L228.164 69.396C227.959 69.8533 227.679 70.208 227.324 70.46C226.969 70.7027 226.498 70.824 225.91 70.824ZM235.289 71.692H241.477V79H239.685V73.12H237.081V79H235.289V71.692ZM246.845 79.168C246.322 79.168 245.851 79.0793 245.431 78.902C245.02 78.7247 244.666 78.468 244.367 78.132C244.078 77.796 243.854 77.3947 243.695 76.928C243.536 76.452 243.457 75.92 243.457 75.332C243.457 74.744 243.536 74.2167 243.695 73.75C243.854 73.2833 244.078 72.8867 244.367 72.56C244.666 72.224 245.02 71.9673 245.431 71.79C245.851 71.6127 246.322 71.524 246.845 71.524C247.368 71.524 247.839 71.6127 248.259 71.79C248.679 71.9673 249.034 72.224 249.323 72.56C249.622 72.8867 249.85 73.2833 250.009 73.75C250.168 74.2167 250.247 74.744 250.247 75.332C250.247 75.92 250.168 76.452 250.009 76.928C249.85 77.3947 249.622 77.796 249.323 78.132C249.034 78.468 248.679 78.7247 248.259 78.902C247.839 79.0793 247.368 79.168 246.845 79.168ZM246.845 77.726C247.321 77.726 247.694 77.5813 247.965 77.292C248.236 77.0027 248.371 76.578 248.371 76.018V74.66C248.371 74.1093 248.236 73.6893 247.965 73.4C247.694 73.1107 247.321 72.966 246.845 72.966C246.378 72.966 246.01 73.1107 245.739 73.4C245.468 73.6893 245.333 74.1093 245.333 74.66V76.018C245.333 76.578 245.468 77.0027 245.739 77.292C246.01 77.5813 246.378 77.726 246.845 77.726ZM252.236 71.692H254.028V72.896H254.084C254.214 72.476 254.462 72.1447 254.826 71.902C255.19 71.65 255.614 71.524 256.1 71.524C257.033 71.524 257.742 71.8553 258.228 72.518C258.722 73.1713 258.97 74.1093 258.97 75.332C258.97 76.564 258.722 77.5113 258.228 78.174C257.742 78.8367 257.033 79.168 256.1 79.168C255.614 79.168 255.19 79.042 254.826 78.79C254.471 78.538 254.224 78.202 254.084 77.782H254.028V81.8H252.236V71.692ZM255.526 77.684C255.992 77.684 256.37 77.53 256.66 77.222C256.949 76.914 257.094 76.4987 257.094 75.976V74.716C257.094 74.1933 256.949 73.778 256.66 73.47C256.37 73.1527 255.992 72.994 255.526 72.994C255.096 72.994 254.737 73.1013 254.448 73.316C254.168 73.5307 254.028 73.8153 254.028 74.17V76.494C254.028 76.8767 254.168 77.1707 254.448 77.376C254.737 77.5813 255.096 77.684 255.526 77.684ZM262.418 73.12H260.192V71.692H266.436V73.12H264.21V79H262.418V73.12ZM273.437 79C273.045 79 272.732 78.888 272.499 78.664C272.275 78.4307 272.135 78.1227 272.079 77.74H271.995C271.874 78.216 271.626 78.5753 271.253 78.818C270.88 79.0513 270.418 79.168 269.867 79.168C269.12 79.168 268.546 78.972 268.145 78.58C267.744 78.188 267.543 77.6653 267.543 77.012C267.543 76.256 267.814 75.696 268.355 75.332C268.896 74.9587 269.666 74.772 270.665 74.772H271.911V74.24C271.911 73.8293 271.804 73.512 271.589 73.288C271.374 73.064 271.029 72.952 270.553 72.952C270.133 72.952 269.792 73.0453 269.531 73.232C269.279 73.4093 269.064 73.624 268.887 73.876L267.823 72.924C268.094 72.504 268.453 72.168 268.901 71.916C269.349 71.6547 269.942 71.524 270.679 71.524C271.668 71.524 272.42 71.748 272.933 72.196C273.446 72.644 273.703 73.288 273.703 74.128V77.572H274.431V79H273.437ZM270.469 77.866C270.87 77.866 271.211 77.7773 271.491 77.6C271.771 77.4227 271.911 77.1613 271.911 76.816V75.85H270.763C269.83 75.85 269.363 76.1487 269.363 76.746V76.984C269.363 77.2827 269.456 77.5067 269.643 77.656C269.839 77.796 270.114 77.866 270.469 77.866ZM275.468 77.572H276.42C276.514 77.432 276.598 77.264 276.672 77.068C276.756 76.872 276.826 76.634 276.882 76.354C276.938 76.0647 276.98 75.724 277.008 75.332C277.046 74.9307 277.064 74.464 277.064 73.932V71.692H282.622V79H280.83V73.12H278.772V74.016C278.772 74.6787 278.749 75.2573 278.702 75.752C278.656 76.2373 278.586 76.6573 278.492 77.012C278.408 77.3667 278.301 77.6653 278.17 77.908C278.049 78.1413 277.914 78.3327 277.764 78.482C277.55 78.6967 277.307 78.846 277.036 78.93C276.766 79.014 276.434 79.056 276.042 79.056H275.468V77.572Z" fill="white"/>
</svg>
