<svg width="284" height="60" viewBox="0 0 284 60" fill="none" xmlns="http://www.w3.org/2000/svg">
<path d="M97.8457 41.1589C97.4537 46.1958 93.0579 49.9687 88.0398 49.5752C83.0216 49.1818 79.2628 44.7696 79.6548 39.7327C80.0467 34.6958 84.4425 30.9229 89.4607 31.3164C94.4789 31.7098 98.2377 36.122 97.8457 41.1589Z" fill="#FF0041"/>
<path d="M92.4745 43.2887C91.2747 45.6933 89.2909 47.6131 86.8531 48.7288C84.4152 49.8445 81.6703 50.0889 79.0749 49.4213C76.4795 48.7538 74.19 47.2145 72.5872 45.0595C70.9844 42.9045 70.1649 40.2637 70.265 37.5762C70.3652 34.8888 71.3789 32.3168 73.1376 30.288C74.8963 28.2592 77.2939 26.8959 79.9318 26.4248C82.5696 25.9536 85.2887 26.4032 87.6367 27.6985C89.9846 28.9939 91.82 31.0571 92.8376 33.5449L88.2686 35.4276C87.6795 33.9874 86.6169 32.7929 85.2576 32.043C83.8983 31.293 82.3242 31.0328 80.797 31.3055C79.2699 31.5783 77.8818 32.3676 76.8636 33.5421C75.8454 34.7167 75.2586 36.2057 75.2006 37.7615C75.1426 39.3174 75.6171 40.8462 76.545 42.0938C77.4729 43.3414 78.7984 44.2326 80.3009 44.6191C81.8035 45.0055 83.3926 44.864 84.804 44.2181C86.2153 43.5722 87.3638 42.4607 88.0584 41.0687L92.4745 43.2887Z" fill="white"/>
<path d="M93.7164 26.2427V31.4754H101.536V49.7899H106.75V31.4754H114.569V26.2427H93.7164Z" fill="white"/>
<path fill-rule="evenodd" clip-rule="evenodd" d="M132.396 48.9467C135.06 47.8765 137.24 45.8636 138.525 43.2887L134.109 41.0687C133.365 42.5594 132.103 43.7247 130.56 44.3443C129.018 44.9638 127.304 44.9946 125.74 44.4308C124.177 43.867 122.874 42.7477 122.078 41.2847C121.887 40.9344 121.729 40.5702 121.603 40.1966H139.767V37.5802C139.767 37.4869 139.759 37.3953 139.745 37.306C139.584 34.6282 138.516 32.0794 136.708 30.0879C134.776 27.959 132.134 26.6146 129.281 26.3091C126.428 26.0037 123.563 26.7583 121.227 28.4303C118.891 30.1022 117.246 32.5756 116.604 35.3824C115.963 38.1892 116.368 41.1347 117.744 43.6619C119.119 46.189 121.37 48.1223 124.07 49.0962C126.77 50.0701 129.732 50.0169 132.396 48.9467ZM121.603 35.836H134.471C134.173 34.9504 133.694 34.1285 133.057 33.4263C131.939 32.1938 130.409 31.4155 128.757 31.2386C127.106 31.0618 125.447 31.4986 124.094 32.4666C122.927 33.3021 122.058 34.4833 121.603 35.836Z" fill="white"/>
<path d="M141.504 26.2427V31.4754H149.324V49.7899H154.538V31.4754H162.357V26.2427H141.504Z" fill="white"/>
<path d="M187.555 38.0163C187.555 44.5186 182.303 49.7899 175.825 49.7899C169.347 49.7899 164.095 44.5186 164.095 38.0163C164.095 31.5139 169.347 26.2427 175.825 26.2427C182.303 26.2427 187.555 31.5139 187.555 38.0163ZM169.034 38.0163C169.034 41.7807 172.075 44.8324 175.825 44.8324C179.575 44.8324 182.616 41.7807 182.616 38.0163C182.616 34.2518 179.575 31.2002 175.825 31.2002C172.075 31.2002 169.034 34.2518 169.034 38.0163Z" fill="white"/>
<path d="M211.51 43.2887C210.31 45.6933 208.327 47.6131 205.889 48.7288C203.451 49.8445 200.706 50.0889 198.111 49.4213C195.515 48.7538 193.226 47.2145 191.623 45.0595C190.02 42.9045 189.201 40.2637 189.301 37.5763C189.401 34.8889 190.415 32.3168 192.173 30.288C193.932 28.2592 196.33 26.8959 198.967 26.4248C201.605 25.9537 204.324 26.4032 206.672 27.6986C209.02 28.9939 210.856 31.0571 211.873 33.5449L207.304 35.4276C206.715 33.9874 205.653 32.7929 204.293 32.043C202.934 31.2931 201.36 31.0328 199.833 31.3056C198.306 31.5783 196.917 32.3676 195.899 33.5421C194.881 34.7167 194.294 36.2057 194.236 37.7615C194.178 39.3174 194.653 40.8462 195.581 42.0938C196.509 43.3414 197.834 44.2326 199.337 44.6191C200.839 45.0055 202.428 44.864 203.84 44.2181C205.251 43.5722 206.399 42.4608 207.094 41.0687L211.51 43.2887Z" fill="white"/>
<path d="M219.69 26.2427H214.49V49.7899H219.69V41.0637C220.887 40.4015 222.301 40.2124 223.639 40.4438C225.058 40.6893 226.362 41.4485 227.334 42.5956C228.306 43.7427 228.415 44.0957 228.856 45.5703C228.92 45.7866 229.28 48.4499 229.278 49.7418L233.57 49.736L233.573 49.5878C233.613 47.9752 233.624 47.5466 233.557 46.4687C233.392 43.8036 232.387 41.2707 230.708 39.2893C230.01 38.4657 229.213 37.7579 228.344 37.1814C230.018 35.702 231.218 33.7106 231.78 31.458C232.141 29.5972 232.155 29.2819 232.102 26.2427L227.635 26.2427C227.665 27.9794 227.588 28.5655 227.219 30.0473C226.849 31.5291 226.002 32.8156 224.819 33.694C223.636 34.5723 222.187 34.9898 220.712 34.8774C220.367 34.8511 220.025 34.7961 219.69 34.7139V26.2427Z" fill="white"/>
<path d="M258.802 38.0163C258.802 44.5186 253.551 49.7899 247.073 49.7899C240.594 49.7899 235.343 44.5186 235.343 38.0163C235.343 31.5139 240.594 26.2427 247.073 26.2427C253.551 26.2427 258.802 31.5139 258.802 38.0163ZM240.282 38.0163C240.282 41.7807 243.322 44.8324 247.073 44.8324C250.823 44.8324 253.863 41.7807 253.863 38.0163C253.863 34.2518 250.823 31.2002 247.073 31.2002C243.322 31.2002 240.282 34.2518 240.282 38.0163Z" fill="white"/>
<path d="M260.54 26.2427H284V49.7899H279.064V31.4754H265.476V49.7899H260.54V26.2427Z" fill="white"/>
<path d="M27.4171 5.105C27.1047 5.54195 26.6784 5.90257 26.1601 6.13419L23.1381 7.48483C21.5605 8.18995 19.7229 7.45245 19.0339 5.87917L18.9847 5.7668C18.2858 4.17104 18.9913 2.32386 20.5689 1.61875L23.5909 0.268103C24.5842 -0.175814 25.6804 -0.0479455 26.5282 0.500285C30.5179 -0.235021 33.9019 0.455401 36.583 2.54929C41.8261 6.65463 42.1593 14.6643 42.1839 15.2561L42.1849 15.2804C42.2121 16.2319 41.6591 17.104 40.7904 17.4923L39.7696 17.9485C44.4192 40.435 40.8645 48.1044 38.0469 50.7182C40.8079 56.0471 45.9399 57.0282 49.3995 55.1227C52.7609 53.2713 55.5916 47.98 51.6863 38.7009C49.1947 32.7809 48.0088 27.9161 48.1221 24.2916C48.1791 22.4679 48.5695 20.8065 49.4376 19.4831C50.3418 18.1046 51.6763 17.2329 53.2872 16.9222C56.2953 16.3421 59.9986 17.7499 63.9018 20.3267C67.9168 22.9773 72.5696 27.1486 77.6347 32.8619L74.6466 35.492C69.7229 29.9381 65.3294 26.0346 61.6997 23.6384C57.9583 21.1685 55.4187 20.5576 54.0448 20.8225C53.4648 20.9344 53.0737 21.2012 52.775 21.6565C52.4401 22.167 52.1503 23.0349 52.1072 24.4152C52.0202 27.199 52.9545 31.4418 55.3631 37.1646C59.7399 47.5639 57.105 55.4178 51.3284 58.5995C45.7159 61.6907 38.1583 59.6721 34.4676 52.4696C30.7832 53.0008 22.6725 50.9284 8.9476 31.7761L8.18743 32.1158C7.31868 32.5041 6.30784 32.3309 5.62913 31.6706C5.36527 31.424 -0.505335 25.61 0.0351296 18.7797C0.275939 15.343 2.05686 12.3388 5.28328 9.85355C5.57313 9.11698 6.13921 8.49105 6.91761 8.14315L9.9174 6.80244C11.495 6.09733 13.3326 6.83482 14.0216 8.4081L14.0709 8.52048L14.0931 8.51055C14.792 10.1063 14.0643 11.9634 12.5088 12.6586L9.48682 14.0092C8.80053 14.316 8.06505 14.3497 7.39633 14.1604C5.69938 15.6585 4.80052 17.292 4.64838 19.1138C4.39348 22.3267 6.50876 25.4961 7.85034 27.1361L8.80598 26.709C9.82676 26.2528 11.0103 26.5832 11.6446 27.4977C26.3191 48.492 33.2078 47.9133 34.066 47.7381C34.4009 47.6627 34.4009 47.6627 34.6508 47.4772L34.6524 47.476C35.358 46.9523 40.3307 42.1777 34.8405 17.1306C34.5972 16.0414 35.1512 14.9344 36.172 14.4782L37.3665 13.9443C37.0648 11.8916 36.1849 8.22219 33.691 6.26378C32.0874 5.02321 30.03 4.63563 27.4171 5.105Z" fill="white"/>
</svg>
