<svg width="364" height="156" viewBox="0 0 364 156" fill="none" xmlns="http://www.w3.org/2000/svg">
<path d="M68.6254 123V107.188H32.3994V92.084L64.4954 40.636H85.4994V93.5H95.8834V107.188H85.4994V123H68.6254ZM46.5594 93.5H68.6254V58.926H67.4454L46.5594 93.5Z" fill="#FF0041"/>
<path d="M237.5 72.171C237.5 54.9512 223.305 40.9602 205.834 40.9602C188.363 40.9602 174.168 54.9512 174.168 72.171C174.168 89.3907 188.363 103.382 205.834 103.382C223.305 103.382 237.5 89.3907 237.5 72.171Z" fill="#FF0041"/>
<path d="M182.084 38C159.699 38 141.5 55.9372 141.5 78C141.5 100.063 159.699 118 182.084 118C204.468 118 222.667 100.063 222.667 78C222.667 55.9372 204.468 38 182.084 38ZM182.084 100.422C169.526 100.422 159.335 90.3767 159.335 78C159.335 65.6233 169.526 55.5785 182.084 55.5785C194.641 55.5785 204.832 65.6233 204.832 78C204.741 90.3767 194.55 100.422 182.084 100.422Z" fill="#014CFF"/>
<path d="M302.625 123V107.188H266.399V92.084L298.495 40.636H319.499V93.5H329.883V107.188H319.499V123H302.625ZM280.559 93.5H302.625V58.926H301.445L280.559 93.5Z" fill="#FF0041"/>
</svg>
