<svg width="343" height="156" viewBox="0 0 343 156" fill="none" xmlns="http://www.w3.org/2000/svg">
<path d="M91.4994 54.96H53.4594L51.6594 81.48H52.6194C53.4194 79.48 54.2994 77.68 55.2594 76.08C56.2994 74.4 57.4994 73 58.8594 71.88C60.2194 70.68 61.8594 69.76 63.7794 69.12C65.6994 68.48 67.9794 68.16 70.6194 68.16C74.2194 68.16 77.5794 68.76 80.6994 69.96C83.8194 71.16 86.5394 72.92 88.8594 75.24C91.1794 77.48 93.0194 80.28 94.3794 83.64C95.7394 86.92 96.4194 90.64 96.4194 94.8C96.4194 99.04 95.6994 103 94.2594 106.68C92.8994 110.28 90.8194 113.4 88.0194 116.04C85.2994 118.68 81.9394 120.76 77.9394 122.28C73.9394 123.72 69.3794 124.44 64.2594 124.44C60.1794 124.44 56.5794 124 53.4594 123.12C50.3394 122.24 47.5794 121.08 45.1794 119.64C42.7794 118.12 40.6994 116.4 38.9394 114.48C37.1794 112.56 35.6594 110.52 34.3794 108.36L47.4594 98.04C49.2994 101.32 51.4994 104.12 54.0594 106.44C56.6194 108.68 60.0594 109.8 64.3794 109.8C68.6994 109.8 71.9394 108.56 74.0994 106.08C76.3394 103.6 77.4594 100.32 77.4594 96.24V95.28C77.4594 91.44 76.3394 88.4 74.0994 86.16C71.8594 83.92 68.7794 82.8 64.8594 82.8C61.5794 82.8 58.8594 83.48 56.6994 84.84C54.6194 86.12 53.0194 87.4 51.8994 88.68L37.1394 86.64L40.2594 39.24H91.4994V54.96Z" fill="#FF0041"/>
<path d="M229.5 72.171C229.5 54.9513 215.305 40.9602 197.834 40.9602C180.363 40.9602 166.168 54.9513 166.168 72.171C166.168 89.3907 180.363 103.382 197.834 103.382C215.305 103.382 229.5 89.3907 229.5 72.171Z" fill="#FF0041"/>
<path d="M174.084 38C151.699 38 133.5 55.9372 133.5 78C133.5 100.063 151.699 118 174.084 118C196.468 118 214.667 100.063 214.667 78C214.667 55.9372 196.468 38 174.084 38ZM174.084 100.422C161.526 100.422 151.335 90.3767 151.335 78C151.335 65.6233 161.526 55.5785 174.084 55.5785C186.641 55.5785 196.832 65.6233 196.832 78C196.741 90.3767 186.55 100.422 174.084 100.422Z" fill="#014CFF"/>
<path d="M342.5 72.171C342.5 54.9513 328.305 40.9602 310.834 40.9602C293.363 40.9602 279.168 54.9513 279.168 72.171C279.168 89.3907 293.363 103.382 310.834 103.382C328.305 103.382 342.5 89.3907 342.5 72.171Z" fill="#FF0041"/>
<path d="M287.084 38C264.699 38 246.5 55.9372 246.5 78C246.5 100.063 264.699 118 287.084 118C309.468 118 327.667 100.063 327.667 78C327.667 55.9372 309.468 38 287.084 38ZM287.084 100.422C274.526 100.422 264.335 90.3767 264.335 78C264.335 65.6233 274.526 55.5785 287.084 55.5785C299.641 55.5785 309.832 65.6233 309.832 78C309.741 90.3767 299.55 100.422 287.084 100.422Z" fill="#014CFF"/>
</svg>
