<svg width="344" height="72" fill="none" xmlns="http://www.w3.org/2000/svg"><path d="M126.594 61.32c-.458 5.892-5.592 10.306-11.452 9.846-5.861-.46-10.251-5.622-9.793-11.514.458-5.893 5.592-10.306 11.452-9.846 5.861.46 10.251 5.622 9.793 11.514z" fill="#FF0041"/><path d="M100.928 49.853a3.292 3.292 0 0 1-.812.883c-1.404 1.088-3.256.828-4.171-.51C89.133 40.06 81.223 32.939 79.198 33.78c-.025-.017-1.727 1.426-1.43 10.153.355 11.074-2.279 18.935-7.848 22.883-9.082 6.449-24.373 2.6-24.823.656-1.44-.738-1.485-2.53-.629-4.089.813-1.548 2.664-2.228 4.105-1.49 3.1 2.665 13.069 4.007 18.077.44 4.368-3.122 5.265-11.739 5.056-17.669-.188-6.072.158-14.422 5.625-16.713 7.947-3.347 19.154 11.742 23.588 18.373.779 1.053.7 2.45.009 3.53zM36.05 2.571c.908 2.066-.037 4.47-2.058 5.37L30.065 9.69c-2.05.913-4.438-.042-5.333-2.079l-.064-.145a4.068 4.068 0 0 1 2.059-5.37L30.653.347c2.05-.913 4.438.042 5.333 2.079l.064.145zM18.312 11.018c.908 2.066-.037 4.47-2.059 5.37l-3.926 1.748c-2.05.913-4.438-.041-5.333-2.078l-.064-.146a4.068 4.068 0 0 1 2.059-5.37l3.897-1.736c2.05-.912 4.438.042 5.333 2.08l.064.145.029-.013z" fill="#014CFF"/><path d="M46.718 67.385c-3.386 1.508-14.264 2.71-35.092-26.247l-.987.44A3.009 3.009 0 0 1 7.314 41c-.343-.32-7.97-7.846-7.268-16.689.33-4.698 2.892-8.773 7.542-12.09 1.371-.948 3.26-.643 4.228.713.967 1.356.624 3.262-.736 4.238-3.16 2.251-4.802 4.735-5.04 7.572-.331 4.16 2.417 8.262 4.16 10.386l1.242-.553a2.993 2.993 0 0 1 3.688 1.02c19.068 27.18 28.02 26.431 29.134 26.204.436-.098.435-.097.762-.34.917-.677 7.378-6.858.244-39.285A3.03 3.03 0 0 1 47 18.744l1.553-.692c-.392-2.657-1.536-7.407-4.776-9.943C41.53 6.38 38.6 5.93 34.82 6.771c-1.632.356-3.224-.655-3.611-2.303-.346-1.633.687-3.273 2.32-3.63C39.122-.404 43.841.428 47.534 3.3c6.933 5.41 7.259 16.053 7.279 16.482a3.044 3.044 0 0 1-1.812 2.864l-1.327.59c7.546 36.356-1.536 42.794-4.615 43.93-.1.078-.2.156-.342.219zM120.32 63.812a13.737 13.737 0 0 1-6.566 6.364 13.632 13.632 0 0 1-9.084.81 13.696 13.696 0 0 1-7.577-5.103 13.825 13.825 0 0 1-2.712-8.754 13.814 13.814 0 0 1 3.355-8.526 13.681 13.681 0 0 1 7.935-4.52 13.634 13.634 0 0 1 8.998 1.49 13.749 13.749 0 0 1 6.075 6.84l-5.337 2.202a7.952 7.952 0 0 0-3.516-3.96 7.895 7.895 0 0 0-9.803 1.755 8 8 0 0 0-.372 10.004 7.924 7.924 0 0 0 4.386 2.954 7.891 7.891 0 0 0 5.259-.47 7.95 7.95 0 0 0 3.801-3.684l5.158 2.598zM121.77 43.87v6.122h9.133v21.425h6.088V49.992h9.133V43.87H121.77z" fill="#014CFF"/><path fill-rule="evenodd" clip-rule="evenodd" d="M166.943 70.43a13.725 13.725 0 0 0 7.158-6.618l-5.157-2.597a7.949 7.949 0 0 1-4.144 3.831 7.89 7.89 0 0 1-5.629.102 7.941 7.941 0 0 1-4.833-4.954h21.214v-3.06c0-.11-.009-.217-.025-.321a13.808 13.808 0 0 0-3.547-8.444 13.644 13.644 0 0 0-18.081-1.94 13.775 13.775 0 0 0-5.398 8.133 13.835 13.835 0 0 0 1.33 9.686 13.723 13.723 0 0 0 7.389 6.357 13.628 13.628 0 0 0 9.723-.175zm-12.605-15.337h15.029a7.987 7.987 0 0 0-1.651-2.819 7.898 7.898 0 0 0-10.468-1.123 7.977 7.977 0 0 0-2.91 3.942z" fill="#014CFF"/><path d="M177.581 43.87v6.122h9.133v21.425h6.088V49.992h9.133V43.87h-24.354zM231.363 57.644c0 7.606-6.133 13.773-13.699 13.773s-13.699-6.167-13.699-13.773c0-7.607 6.133-13.774 13.699-13.774s13.699 6.167 13.699 13.774zm-21.63 0c0 4.403 3.551 7.973 7.931 7.973s7.931-3.57 7.931-7.973c0-4.404-3.551-7.974-7.931-7.974s-7.931 3.57-7.931 7.974zM259.34 63.812a13.731 13.731 0 0 1-6.565 6.364 13.632 13.632 0 0 1-9.084.81 13.697 13.697 0 0 1-7.577-5.103 13.824 13.824 0 0 1-2.712-8.754 13.815 13.815 0 0 1 3.355-8.526 13.681 13.681 0 0 1 7.935-4.52 13.635 13.635 0 0 1 8.998 1.49 13.747 13.747 0 0 1 6.074 6.84l-5.336 2.202a7.96 7.96 0 0 0-3.516-3.96 7.895 7.895 0 0 0-5.21-.862 7.922 7.922 0 0 0-4.594 2.617 8.006 8.006 0 0 0-.372 10.004 7.93 7.93 0 0 0 4.387 2.954 7.891 7.891 0 0 0 5.259-.47 7.955 7.955 0 0 0 3.801-3.684l5.157 2.598zM268.893 43.87h-6.073v27.547h6.073V61.209c1.398-.775 3.05-.996 4.612-.726 1.658.288 3.18 1.176 4.315 2.518 1.135 1.342 1.264 1.755 1.778 3.48.075.253.495 3.368.493 4.88l5.012-.007.004-.174c.047-1.886.059-2.387-.019-3.648-.192-3.118-1.366-6.081-3.327-8.4a13.153 13.153 0 0 0-2.76-2.465c1.954-1.73 3.355-4.06 4.012-6.696.422-2.176.438-2.545.377-6.1h-5.218c.035 2.031-.054 2.717-.486 4.45-.432 1.734-1.421 3.239-2.803 4.266a7.103 7.103 0 0 1-4.796 1.385 7.362 7.362 0 0 1-1.194-.192v-9.91zM314.572 57.644c0 7.606-6.133 13.773-13.699 13.773s-13.699-6.167-13.699-13.773c0-7.607 6.133-13.774 13.699-13.774s13.699 6.167 13.699 13.774zm-21.63 0c0 4.403 3.551 7.973 7.931 7.973s7.931-3.57 7.931-7.973c0-4.404-3.551-7.974-7.931-7.974s-7.931 3.57-7.931 7.974zM316.602 43.87H344v27.547h-5.765V49.992h-15.868v21.425h-5.765V43.87z" fill="#014CFF"/></svg>